<svg width="256" height="256" viewBox="0 0 256 256" fill="none" xmlns="http://www.w3.org/2000/svg">
<path d="M62.6723 147.14C109.393 131.056 91.0731 80.526 76.6031 50.5097L87.7952 52.6611C123.519 132.147 93.6004 145.743 71.121 154.13L62.6723 147.14Z" fill="black"/>
<path d="M135.17 132.406L101.666 54.5732L117.05 59.3244L140.335 112.778C156.832 100.738 156.86 81.7197 154.813 73.7158L165.179 57.8142C177.734 95.4243 150.405 123.213 135.17 132.406Z" fill="black"/>
<path d="M62.6723 147.14C109.393 131.056 91.0731 80.526 76.6031 50.5097L87.7952 52.6611C123.519 132.147 93.6004 145.743 71.121 154.13L62.6723 147.14Z" stroke="black"/>
<path d="M135.17 132.406L101.666 54.5732L117.05 59.3244L140.335 112.778C156.832 100.738 156.86 81.7197 154.813 73.7158L165.179 57.8142C177.734 95.4243 150.405 123.213 135.17 132.406Z" stroke="black"/>
<path d="M193.328 108.86C146.607 124.944 164.927 175.474 179.397 205.49L168.205 203.339C132.481 123.853 162.4 110.257 184.879 101.87L193.328 108.86Z" fill="black"/>
<path d="M120.83 123.594L154.334 201.427L138.95 196.676L115.665 143.222C99.1684 155.262 99.1394 174.28 101.187 182.284L90.8205 198.186C78.2654 160.576 105.595 132.787 120.83 123.594Z" fill="black"/>
<path d="M193.328 108.86C146.607 124.944 164.927 175.474 179.397 205.49L168.205 203.339C132.481 123.853 162.4 110.257 184.879 101.87L193.328 108.86Z" stroke="black"/>
<path d="M120.83 123.594L154.334 201.427L138.95 196.676L115.665 143.222C99.1684 155.262 99.1394 174.28 101.187 182.284L90.8205 198.186C78.2654 160.576 105.595 132.787 120.83 123.594Z" stroke="black"/>
</svg>
