<svg width="256" height="256" viewBox="0 0 256 256" xmlns="http://www.w3.org/2000/svg">
<defs>
<linearGradient id="tile" x1="0" y1="0" x2="256" y2="256" gradientUnits="userSpaceOnUse">
<stop offset="0" stop-color="#1A3D63"/>
<stop offset="1" stop-color="#0A1931"/>
</linearGradient>
<linearGradient id="luluGrad" x1="40" y1="40" x2="216" y2="216" gradientUnits="userSpaceOnUse">
<stop offset="0" stop-color="#F6FAFD"/>
<stop offset="0.5" stop-color="#B3CFE5"/>
<stop offset="1" stop-color="#4A7FA7"/>
</linearGradient>
</defs>
<rect x="0" y="0" width="256" height="256" rx="56" fill="url(#tile)"/>
<rect x="3" y="3" width="250" height="250" rx="54" fill="none" stroke="#4A7FA7" stroke-opacity="0.35" stroke-width="2"/>
<g transform="translate(128,128) scale(0.82) translate(-128,-128)">
<path d="M0 0 C0.3724585 0.87168823 0.3724585 0.87168823 0.75244141 1.76098633 C2.04243818 4.77852431 3.33366513 7.79553439 4.625 10.8125 C5.13192383 11.99763184 5.63884766 13.18276367 6.16113281 14.40380859 C9.48664101 22.17066879 12.83253855 29.92849777 16.19332886 37.68016052 C18.20724552 42.32532026 20.21863881 46.97157142 22.23016357 51.61776733 C23.24550197 53.96080105 24.26214995 56.30326768 25.28009033 58.64517212 C26.72643128 61.97298922 28.16832587 65.30270117 29.609375 68.6328125 C30.05258087 69.64934402 30.49578674 70.66587555 30.9524231 71.71321106 C31.35451996 72.64461411 31.75661682 73.57601715 32.17089844 74.53564453 C32.52553162 75.35275909 32.88016479 76.16987366 33.24554443 77.01174927 C34 79 34 79 34 81 C32.12425571 80.54472226 30.24943754 80.0856282 28.375 79.625 C27.33085937 79.36976563 26.28671875 79.11453125 25.2109375 78.8515625 C24.15132812 78.57054687 23.09171875 78.28953125 22 78 C20.51197876 77.65811646 20.51197876 77.65811646 18.99389648 77.30932617 C15.09020104 75.60211597 14.53694367 74.07501649 12.88671875 70.19921875 C12.36489014 69.00337158 11.84306152 67.80752441 11.30541992 66.57543945 C10.765569 65.27968627 10.22627306 63.98370173 9.6875 62.6875 C9.12338806 61.3731304 8.55737503 60.05957516 7.98950195 58.74682617 C6.849687 56.10266773 5.72223363 53.45377878 4.60546875 50.79980469 C3.15089529 47.34606372 1.6599828 43.90922889 0.15625 40.4765625 C-3.1116254 32.98739482 -3.1116254 32.98739482 -4.48828125 29.76953125 C-4.78259033 29.08479736 -5.07689941 28.40006348 -5.38012695 27.69458008 C-6 26 -6 26 -6 24 C-13.25686029 27.83752612 -16.4754207 34.5985113 -18.875 42.25 C-19.98537689 46.61789139 -19.90023705 50.27372394 -19.5625 54.75 C-19.26807278 63.9178544 -24.38763789 70.20076131 -30 77 C-30.99 77.495 -30.99 77.495 -32 78 C-37.29740386 64.25197568 -36.88658755 47.44467526 -31 34 C-26.27448428 23.96491606 -12.72446946 0 0 0 Z " fill="url(#luluGrad)" transform="translate(122,122)"/>
<path d="M0 0 C1.87574429 0.45527774 3.75056246 0.9143718 5.625 1.375 C7.19121094 1.75785156 7.19121094 1.75785156 8.7890625 2.1484375 C9.84867188 2.42945313 10.90828125 2.71046875 12 3 C13.48802124 3.34188354 13.48802124 3.34188354 15.00610352 3.69067383 C18.90979896 5.39788403 19.46305633 6.92498351 21.11328125 10.80078125 C21.63510986 11.99662842 22.15693848 13.19247559 22.69458008 14.42456055 C23.234431 15.72031373 23.77372694 17.01629827 24.3125 18.3125 C24.87661194 19.6268696 25.44262497 20.94042484 26.01049805 22.25317383 C27.150313 24.89733227 28.27776637 27.54622122 29.39453125 30.20019531 C30.84910471 33.65393628 32.3400172 37.09077111 33.84375 40.5234375 C37.1116254 48.01260518 37.1116254 48.01260518 38.48828125 51.23046875 C38.78259033 51.91520264 39.07689941 52.59993652 39.38012695 53.30541992 C40 55 40 55 40 57 C45.73889218 54.64494705 48.49488188 49.25337072 51.015625 43.8046875 C53.38605406 37.69269885 54.03339658 33.0968894 53.4375 26.625 C53.28864975 17.24743425 58.2476948 10.9687763 64 4 C64.66 3.67 65.32 3.34 66 3 C71.34519486 16.87205333 70.75057852 33.40600946 65 47 C64.63777344 47.87785156 64.27554688 48.75570312 63.90234375 49.66015625 C58.19031068 62.18790335 47.60322374 73.65918498 36 81 C35.34 81 34.68 81 34 81 C33.53851563 79.92145752 33.07703125 78.84291504 32.6015625 77.73168945 C30.80792986 73.54032665 29.01345268 69.34932585 27.21868896 65.15844727 C26.40786171 63.26496036 25.59719212 61.37140593 24.78668213 59.4777832 C20.29662895 48.98867499 15.79406298 38.50541764 11.2421875 28.04296875 C10.87007141 27.18673416 10.49795532 26.33049957 10.11456299 25.44831848 C8.33985777 21.3650674 6.56161554 17.28342553 4.77734375 13.2043457 C4.14046609 11.74046626 3.50373858 10.27652148 2.8671875 8.8125 C2.57431854 8.14675461 2.28144958 7.48100922 1.97970581 6.79508972 C0 2.22715917 0 2.22715917 0 0 Z " fill="url(#luluGrad)" transform="translate(100,53)"/>
<path d="M0 0 C2.140625 1.33984375 2.140625 1.33984375 4.25 2.9375 C4.95640625 3.46214844 5.6628125 3.98679687 6.390625 4.52734375 C6.92171875 5.01332031 7.4528125 5.49929687 8 6 C8 6.66 8 7.32 8 8 C7.38253906 8.20753906 6.76507813 8.41507813 6.12890625 8.62890625 C-3.78655687 12.2359012 -12.29081741 18.1190448 -17.375 27.55078125 C-26.09018251 46.24385738 -20.7019064 66.51029373 -14 85 C-12.00414662 89.93082377 -9.80203284 94.75750089 -7.5390625 99.5703125 C-6 103 -6 103 -6 105 C-7.93956814 104.744398 -9.87665989 104.46995354 -11.8125 104.1875 C-13.43091797 103.96126953 -13.43091797 103.96126953 -15.08203125 103.73046875 C-18.23656143 102.94078047 -18.96783653 102.41219813 -21 100 C-21.97973633 98.15673828 -21.97973633 98.15673828 -22.83203125 96.0703125 C-23.15292725 95.28479004 -23.47382324 94.49926758 -23.80444336 93.68994141 C-24.13710205 92.84351074 -24.46976074 91.99708008 -24.8125 91.125 C-25.15998291 90.2489209 -25.50746582 89.3728418 -25.86547852 88.47021484 C-33.24170049 69.39932205 -41.41078906 44.8029431 -34.25 24.5 C-33.54983093 22.97610261 -32.80679907 21.47022966 -32 20 C-31.1646875 18.4221875 -31.1646875 18.4221875 -30.3125 16.8125 C-24.19028968 9.36656852 -10.51254406 -3.77424044 0 0 Z " fill="url(#luluGrad)" transform="translate(187,102)"/>
<path d="M0 0 C1.93956814 0.255602 3.87665989 0.53004646 5.8125 0.8125 C7.43091797 1.03873047 7.43091797 1.03873047 9.08203125 1.26953125 C12.23656143 2.05921953 12.96783653 2.58780187 15 5 C15.97973633 6.84326172 15.97973633 6.84326172 16.83203125 8.9296875 C17.15292725 9.71520996 17.47382324 10.50073242 17.80444336 11.31005859 C18.3034314 12.57970459 18.3034314 12.57970459 18.8125 13.875 C19.15998291 14.7510791 19.50746582 15.6271582 19.86547852 16.52978516 C27.24170049 35.60067795 35.41078906 60.1970569 28.25 80.5 C27.54983093 82.02389739 26.80679907 83.52977034 26 85 C25.1646875 86.5778125 25.1646875 86.5778125 24.3125 88.1875 C17.29401671 96.7234932 8.64652261 102.83202041 -2.05859375 105.8671875 C-5.82306596 106.03716367 -7.02599223 105.08085838 -9.875 102.6875 C-10.65617187 102.05199219 -11.43734375 101.41648437 -12.2421875 100.76171875 C-14 99 -14 99 -14 97 C-13.38253906 96.79246094 -12.76507813 96.58492188 -12.12890625 96.37109375 C-1.20764078 92.39821331 6.6491028 85.99059004 12.21875 75.76171875 C20.3420688 58.03547666 14.29887108 37.37778314 8 20 C6.00414662 15.06917623 3.80203284 10.24249911 1.5390625 5.4296875 C0 2 0 2 0 0 Z " fill="url(#luluGrad)" transform="translate(75,49)"/>
</g>
</svg>
